<svg xmlns="http://www.w3.org/2000/svg" width="26" height="26" viewBox="0 0 26 26" fill="none">
<path d="M12.9408 0C6.15955 0 0.597908 5.1929 0 11.8181H10.5773V8.27268C10.5773 7.7953 10.8656 7.36402 11.3064 7.18073C11.7485 6.99766 12.2566 7.09915 12.5946 7.43717L17.3218 12.1646C17.784 12.6266 17.784 13.3734 17.3218 13.8356L12.5946 18.5628C12.2566 18.9008 11.7485 19.0026 11.3064 18.8193C10.8656 18.6362 10.5773 18.2047 10.5773 17.7273V14.1819H0C0.597908 20.8071 6.15955 26 12.9408 26C20.1205 26 25.9409 20.1795 25.9409 13.0001C25.9409 5.82046 20.1205 0 12.9408 0V0Z" fill="#a3e635"/>
</svg>